<svg width="266" height="260" viewBox="0 0 266 260" fill="none" xmlns="http://www.w3.org/2000/svg">
<path d="M57.9149 152.981C57.9149 145.977 55.288 135.031 45.2182 135.031C35.1485 135.031 27.626 142.835 25.9544 152.981C23.953 165.129 36.0241 177.937 45.2182 177.937C54.4123 177.937 74.5188 180.675 82.4325 167.867C89.381 156.621 86.9389 144.992 79.3678 134.155C74.2953 126.895 50.2244 96.9333 63.1686 52.284C72.2015 21.1263 103.01 5.00024 131.468 5C159.926 4.99976 187.323 22.4382 201.08 52.284C218.603 90.3004 198.24 113.29 186.632 134.155C180.178 145.757 175.577 156.393 182.254 167.867C189.993 181.165 208.961 177.937 220.344 177.937C231.727 177.937 240.229 164.83 238.295 152.981C236.697 143.197 229.976 135.031 220.344 135.031C210.712 135.031 205.88 144.398 207.21 152.981" stroke="white" stroke-width="10" stroke-linecap="round" stroke-linejoin="round"/>
<path d="M135.846 30.8305C135.846 30.8305 151.169 28.6415 167.368 44.8406C183.568 61.0398 182.254 77.6767 182.254 77.6767" stroke="white" stroke-width="10" stroke-linecap="round" stroke-linejoin="round"/>
<path d="M109.577 160.425C109.577 160.425 108.561 178.925 101.696 187.569C92.4739 199.181 81.0621 201.142 66.2333 201.142C49.5963 201.142 36.7252 196.587 24.2031 202.893C10.3107 209.888 1.62526 222.192 6.25266 237.042C9.54168 247.597 19.2991 253.503 30.3325 252.804C40.5947 252.153 48.224 244.606 49.5963 234.416" stroke="white" stroke-width="10" stroke-linecap="round" stroke-linejoin="round"/>
<path d="M156.423 159.987C156.423 159.987 157.439 178.488 164.304 187.132C173.526 198.744 184.938 200.704 199.767 200.704C216.404 200.704 229.275 196.15 241.797 202.455C255.689 209.451 264.375 221.755 259.747 236.605C256.458 247.16 246.701 253.066 235.668 252.366C225.405 251.716 217.776 244.169 216.404 233.978" stroke="white" stroke-width="10" stroke-linecap="round" stroke-linejoin="round"/>
<path d="M132.781 165.679C132.781 165.679 123.587 191.072 120.522 196.764C117.457 202.455 111.328 212.525 97.3179 217.779C85.0869 222.365 71.4868 224.855 71.4868 237.918C71.4868 249.301 78.4919 254.993 91.6263 254.993C101.301 254.993 107.742 247.417 109.577 237.918" stroke="white" stroke-width="10" stroke-linecap="round" stroke-linejoin="round"/>
<path d="M132.781 165.241C132.781 165.241 141.975 190.634 145.04 196.326C148.104 202.018 154.234 212.087 168.244 217.341C180.475 221.928 194.075 224.418 194.075 237.481C194.075 248.864 187.07 254.555 173.935 254.555C164.261 254.555 157.82 246.98 155.985 237.481" stroke="white" stroke-width="10" stroke-linecap="round" stroke-linejoin="round"/>
<path d="M120.522 129.34V138.534" stroke="white" stroke-width="10" stroke-linecap="round" stroke-linejoin="round"/>
<path d="M145.04 129.34V138.534" stroke="white" stroke-width="10" stroke-linecap="round" stroke-linejoin="round"/>
</svg>
