<svg width="66" height="65" viewBox="0 0 66 65" fill="none" xmlns="http://www.w3.org/2000/svg">
<path d="M14.2287 37.9953C14.2287 36.2441 13.572 33.5077 11.0546 33.5077C8.53712 33.5077 6.6565 35.4588 6.2386 37.9953C5.73824 41.0323 8.75603 44.2342 11.0546 44.2342C13.3531 44.2342 18.3797 44.9188 20.3581 41.7168C22.0953 38.9053 21.4847 35.998 19.5919 33.2888C18.3238 31.4738 12.3061 23.9833 15.5422 12.821C17.8004 5.03157 25.5024 1.00006 32.6169 1C39.7314 0.999941 46.5808 5.35956 50.0201 12.821C54.4008 22.3251 49.3101 28.0726 46.4081 33.2888C44.7946 36.1892 43.6443 38.8482 45.3136 41.7168C47.2482 45.0414 51.9902 44.2342 54.836 44.2342C57.6818 44.2342 59.8072 40.9574 59.3236 37.9953C58.9243 35.5493 57.244 33.5077 54.836 33.5077C52.428 33.5077 51.2199 35.8494 51.5524 37.9953" stroke="white" stroke-width="2" stroke-linecap="round" stroke-linejoin="round"/>
<path d="M33.7114 7.45763C33.7114 7.45763 37.5423 6.91037 41.5921 10.9602C45.6419 15.0099 45.3135 19.1692 45.3135 19.1692" stroke="white" stroke-width="2" stroke-linecap="round" stroke-linejoin="round"/>
<path d="M27.1442 39.8562C27.1442 39.8562 26.8903 44.4814 25.1741 46.6423C22.8685 49.5454 20.0155 50.0354 16.3083 50.0354C12.1491 50.0354 8.9313 48.8968 5.80076 50.4732C2.32768 52.2221 0.156316 55.2981 1.31316 59.0106C2.13542 61.6493 4.57478 63.1258 7.33312 62.9509C9.89868 62.7883 11.806 60.9016 12.1491 58.3539" stroke="white" stroke-width="2" stroke-linecap="round" stroke-linejoin="round"/>
<path d="M38.8558 39.7468C38.8558 39.7468 39.1097 44.372 40.8259 46.533C43.1315 49.436 45.9845 49.926 49.6917 49.926C53.8509 49.926 57.0687 48.7874 60.1992 50.3638C63.6723 52.1127 65.8437 55.1887 64.6868 58.9012C63.8646 61.54 61.4252 63.0164 58.6669 62.8416C56.1013 62.6789 54.194 60.7922 53.8509 58.2445" stroke="white" stroke-width="2" stroke-linecap="round" stroke-linejoin="round"/>
<path d="M32.9452 41.1697C32.9452 41.1697 30.6467 47.518 29.8805 48.9409C29.1143 50.3638 27.582 52.8812 24.0795 54.1947C21.0217 55.3413 17.6217 55.9639 17.6217 59.2295C17.6217 62.0753 19.373 63.4982 22.6566 63.4982C25.0753 63.4982 26.6854 61.6044 27.1442 59.2295" stroke="white" stroke-width="2" stroke-linecap="round" stroke-linejoin="round"/>
<path d="M32.9452 41.0603C32.9452 41.0603 35.2437 47.4086 36.0099 48.8315C36.776 50.2544 38.3084 52.7718 41.8109 54.0853C44.8687 55.2319 48.2687 55.8545 48.2687 59.1202C48.2687 61.966 46.5174 63.3889 43.2338 63.3889C40.8151 63.3889 39.205 61.495 38.7462 59.1202" stroke="white" stroke-width="2" stroke-linecap="round" stroke-linejoin="round"/>
<path d="M29.8805 32.085V34.3835" stroke="white" stroke-width="2" stroke-linecap="round" stroke-linejoin="round"/>
<path d="M36.0099 32.085V34.3835" stroke="white" stroke-width="2" stroke-linecap="round" stroke-linejoin="round"/>
</svg>
